<?xml version="1.0" encoding="UTF-8"?>
<svg id="Layer_2" data-name="Layer 2" xmlns="http://www.w3.org/2000/svg" viewBox="0 0 304.16 252.59">
  <defs>
    <style>
      .cls-1 {
        fill: #412825;
      }

      .cls-2 {
        fill: #d6bea9;
        stroke: #000;
        stroke-miterlimit: 10;
      }
    </style>
  </defs>
  <g id="Layer_1-2" data-name="Layer 1">
    <g>
      <path class="cls-1" d="M11.91,89.94c-3.35,20.11-1.38,33.86,0,52.03,2.51,32.92,10.19,49.5,6.43,61.6C10.08,230.16-2.8,240.68.54,248.02c6.85,15.06,42.52-11.62,53.4-14.81,16.41-4.82,26.7-5.93,44.5-8.89,18.46-3.07,87.2,1.08,126.61-11.39,9.31-2.95,52.57-16.63,71.05-56.76,21.93-47.61-7.62-96.38-9.47-99.33C253.83,4.57,187.41,1.26,163.48.06c0,0-61.51-3.06-113.68,33.11-9.3,6.45-25.14,17.73-33.16,37.84-2.67,6.69-3.62,12.24-4.74,18.92Z"/>
      <path class="cls-2" d="M223.1,195.88c-12.95,4.4-42.38,14.03-80.52,9.46-20.5-2.46-50.01-5.99-75.78-28.38-25.74-22.35-47.37-63.17-37.89-99.33C44.78,17.06,142.64-10.36,208.89,16.13c5.25,2.1,67.73,28.17,75.78,85.14.35,2.48,6.1,47.97-23.68,75.68-10.25,9.53-20.43,12.99-37.89,18.92Z"/>
      <path class="cls-1" d="M212.58,78.25c3.81,3.7,18.96-13.04,37.89-9.35.59.11,12.87,2.64,14.21,9.35.92,4.65-3.84,9.12-9.47,14.03-23.46,20.44-35.19,30.65-42.63,28.06-11.72-4.08-13.55-25.12-14.21-32.74-1.2-13.82,1.23-36.75,14.21-42.09,2.58-1.06,7.4-2.18,9.47,0,5.47,5.75-13.85,28.49-9.47,32.74Z"/>
      <path class="cls-1" d="M203.11,125.02c-.49,5.24-35.45,15.75-52.1,0-17.57-16.61-4.11-52.37,9.47-70.15,3.1-4.05,12.25-16.03,18.95-14.03,8.83,2.64,13.35,29.58,4.74,42.09-1,1.44-3.4,4.5-4.74,9.35-1.35,4.91-1.21,10.26,0,14.03,4.23,13.18,24.06,14.69,23.68,18.71Z"/>
      <path class="cls-1" d="M165.21,36.16c-1.78-3.37-29.33.99-47.37,18.71-21.41,21.03-31.67,63.09-9.47,88.86,11.94,13.86,32.26,21.84,52.1,18.71,23.43-3.7,38.91-21.73,37.89-23.38-.55-.9-5.91,3.12-14.21,4.68-15.73,2.96-36.64-3.92-47.37-18.71-16.33-22.51-2.78-54.66,9.47-70.15,9.47-11.97,20.12-16.48,18.95-18.71Z"/>
      <path class="cls-1" d="M188.9,162.44c24.74-10.77,10.64-19.49,14.21-18.71,3.03.67,29.41,21.52-9.47,37.41-9.79,4-66.75,9.58-104.2-10.17-28.07-14.81-52.1-50.03-52.1-79.5,0-9.35,2.32-29.08,23.68-46.77C98.55,13.62,148.11,5.85,146.27,11.96c-1.27,4.24-42.08,26.02-56.84,60.8-14.01,33-8.54,76.81,28.42,89.68,35.61,12.4,52.1,4.68,56.84,4.68"/>
      <path class="cls-1" d="M269.42,92.28c-4.15-1.47-9.22,23.14-28.42,28.06-9.83,2.52-21.08-.72-23.68,4.68-1.05,2.18-.08,4.5,0,4.68,3.47,7.93,28.41,11.46,42.63,0,14.69-11.84,13.41-36.02,9.47-37.41Z"/>
      <path class="cls-1" d="M222.05,143.73c1.87-3.12,9.99,2.51,23.68,0,13.74-2.52,22.01-11.2,23.68-9.35,1.26,1.4-2.91,6.93-4.74,9.35-7.54,10.01-14.35,19.04-23.68,18.71-11.47-.41-21.31-14.76-18.95-18.71Z"/>
    </g>
  </g>
</svg>